<svg width="600" height="600" xmlns="http://www.w3.org/2000/svg">

 <g>
  <title>Layer 1</title>
  <path stroke="null" fill="#9564AA" d="m104.56074,149.50064c-9.81322,-16.04441 -14.86036,-35.79344 -14.86036,-59.80025c0,-47.32891 35.59311,-89.70038 89.70038,-89.70038c54.17903,0 97.87209,36.28679 119.60051,93.10302c21.72842,-56.81622 65.42148,-93.10302 119.60051,-93.10302c54.10727,0 89.70038,42.37147 89.70038,89.70038c0,24.00681 -5.04714,43.75585 -14.86036,59.80025l44.76049,0c33.02768,0 59.80025,26.77257 59.80025,59.80025l0,59.80025c0,33.02768 -26.77257,59.80025 -59.80025,59.80025l0,209.30089c0,33.02768 -26.77257,59.80025 -59.80025,59.80025l-358.80152,0c-33.02768,0 -59.80025,-26.77257 -59.80025,-59.80025l0,-209.30089c-33.02768,0 -59.80025,-26.77257 -59.80025,-59.80025l0,-59.80025c0,-33.02768 26.77257,-59.80025 59.80025,-59.80025l44.76049,0zm164.5404,59.80025l-209.30089,0l0,59.80025l209.30089,0l0,-59.80025zm269.10114,59.80025l-209.30089,0l0,-59.80025l209.30089,0l0,59.80025zm-269.10114,269.10114l0,-209.30089l-149.50063,0l0,209.30089l149.50063,0zm209.30089,0l-149.50063,0l0,-209.30089l149.50063,0l0,209.30089zm-299.00127,-478.40203c-18.55004,0 -29.90013,13.51486 -29.90013,29.90013c0,37.47084 30.40843,55.28832 102.5395,59.0378c-8.01622,-55.70095 -37.88944,-88.93793 -72.63937,-88.93793zm164.4507,88.93793c8.01622,-55.70095 37.88944,-88.93793 72.63937,-88.93793c18.55004,0 29.90013,13.51486 29.90013,29.90013c0,37.47084 -30.40843,55.28832 -102.5395,59.0378z" clip-rule="evenodd" fill-rule="evenodd"/>
 </g>
</svg>